<svg width="32" height="32" viewBox="0 0 256 256" fill="none" xmlns="http://www.w3.org/2000/svg">
<defs>
  <linearGradient id="linear-gradient" x1="0%" y1="0%" x2="100%" y2="100%">
    <stop offset="0%" stop-color="#B6509E"/>
    <stop offset="50%" stop-color="#2EBAC6"/>
    <stop offset="100%" stop-color="#B6509E"/>
  </linearGradient>
</defs>
<!-- Gradient ring around (using provided path in original 256x256 coordinate system) -->
<path d="M128 256a128.976 128.976 0 0 1-25.8-2.6 127.309 127.309 0 0 1-45.77-19.261 128.366 128.366 0 0 1-46.375-56.315A127.357 127.357 0 0 1 2.6 153.8a129.251 129.251 0 0 1 0-51.593 127.31 127.31 0 0 1 19.26-45.77 128.372 128.372 0 0 1 56.317-46.378A127.33 127.33 0 0 1 102.2 2.6a129.244 129.244 0 0 1 51.593 0 127.308 127.308 0 0 1 45.77 19.26 128.367 128.367 0 0 1 46.375 56.316A127.343 127.343 0 0 1 253.4 102.2a129.248 129.248 0 0 1 0 51.593 127.3 127.3 0 0 1-19.26 45.77 128.382 128.382 0 0 1-56.316 46.375A127.4 127.4 0 0 1 153.8 253.4 128.977 128.977 0 0 1 128 256zm0-242.287a115.145 115.145 0 0 0-23.033 2.322A113.657 113.657 0 0 0 64.1 33.232a114.622 114.622 0 0 0-41.4 50.283 113.7 113.7 0 0 0-6.659 21.452 115.4 115.4 0 0 0 0 46.065 113.66 113.66 0 0 0 17.2 40.866 114.627 114.627 0 0 0 50.282 41.407 113.75 113.75 0 0 0 21.453 6.658 115.381 115.381 0 0 0 46.065 0 113.609 113.609 0 0 0 40.866-17.2 114.622 114.622 0 0 0 41.393-50.278 113.741 113.741 0 0 0 6.659-21.453 115.4 115.4 0 0 0 0-46.065 113.662 113.662 0 0 0-17.2-40.865A114.619 114.619 0 0 0 172.485 22.7a113.74 113.74 0 0 0-21.453-6.659A115.145 115.145 0 0 0 128 13.714z" fill="url(#linear-gradient)" id="Subtraction_108"/>
<!-- AAVE token (scaled with 3px margin = 24 units in 256x256 viewBox, so scale by 6.5 instead of 8) -->
<g transform="translate(128, 128) scale(6.5) translate(-16, -16)">
  <path d="M32 16.0084C32 7.15591 24.8441 0 16.0084 0C7.1727 0 0 7.15591 0 16.0084C0 24.8609 7.15591 32.0168 16.0084 32.0168C24.8609 32.0168 32 24.8441 32 16.0084Z" fill="#9391F7"/>
  <path d="M13.0183 16.7811C14.3958 16.5627 15.3197 15.2693 15.1013 13.8919C14.8829 12.5144 13.5895 11.5905 12.212 11.8089C10.8346 12.0273 9.91074 13.3207 10.1291 14.6982C10.3643 16.0756 11.6577 16.9995 13.0183 16.7811ZM19.6031 16.7811C20.9806 16.5627 21.9044 15.2693 21.6861 13.8919C21.4677 12.5144 20.1743 11.5905 18.7968 11.8089C17.4194 12.0273 16.4955 13.3207 16.7139 14.6982C16.9323 16.0756 18.2257 16.9995 19.6031 16.7811Z" fill="white"/>
  <path d="M15.9076 3.91391C9.07089 3.91391 3.52759 9.558 3.52759 16.5123H6.68559C6.68559 11.2882 10.7843 7.07192 15.8908 7.07192C21.0142 7.07192 25.0961 11.305 25.0961 16.5123H28.2541C28.2877 9.558 22.7444 3.91391 15.9076 3.91391Z" fill="white"/>
</g>
</svg>
